<svg width="50" height="32" viewBox="0 0 50 32" fill="none" xmlns="http://www.w3.org/2000/svg">
<g clip-path="url(#clip0_161_1026)">
<rect width="50" height="32" fill="black"/>
<path d="M45.9659 0H18.0496C9.99829 0 2.06856 7.16444 0.341531 16C-1.3936 24.8356 3.73072 32 11.774 32H20.6037C21.7956 32 22.9713 30.9422 23.2307 29.6267L24.4632 23.3511C24.7226 22.0444 23.9604 20.9778 22.7686 20.9778H12.9496C10.7118 20.9778 9.13072 19.0844 9.54423 16.6311C9.97396 14.0889 12.2361 12.0089 14.5388 12.0089H29.9767C31.1686 12.0089 31.9307 13.0667 31.6713 14.3822L28.6794 29.6356C28.4199 30.9422 29.1821 32.0089 30.374 32.0089H37.5334C38.7253 32.0089 39.901 30.9511 40.1604 29.6356L43.1523 14.3822C43.4118 13.0756 44.5875 12.0089 45.7794 12.0089C46.9713 12.0089 48.1469 10.9511 48.4064 9.63556L50.2956 0H45.974L45.9659 0Z" fill="white"/>
</g>
<defs>
<clipPath id="clip0_161_1026">
<rect width="50" height="32" fill="white"/>
</clipPath>
</defs>
</svg>
